# xmcd
#
# Track frame offsets: 
#        150
#        19149
#        31236
#        47568
#        61689
#        71675
#        85096
#        96785
#        109445
#        118181
#        132851
#        143683
#        161767
#
# Disc length: 2340 seconds
#
# Revision: 0
# Processed by: cddbd v1.5.2PL0 Copyright (c) Steve Scherf et al.
# Submitted via: ExactAudioCopy v0.95a5
#
DISCID=ad09220d
DTITLE=Judge Bone and Doc Hill - Big Bear's Gate
DYEAR=2008
DGENRE=Blues
TTITLE0=Big Bear's Gate
TTITLE1=You Hate Me And My Stetson Hat
TTITLE2=Do The Hoodang
TTITLE3=Down To The Cold Cold Ground
TTITLE4=Bonnie George Campbell
TTITLE5=Ramona
TTITLE6=Seventeen And In Misery
TTITLE7=Buffalo's Bone
TTITLE8=15 000 Heads
TTITLE9=Fare Thee Well
TTITLE10=Train Train Train
TTITLE11=Say You Love Me Baby
TTITLE12=I Let The Angels Do The Dreaming
EXTD=
EXTT0=
EXTT1=
EXTT2=
EXTT3=
EXTT4=
EXTT5=
EXTT6=
EXTT7=
EXTT8=
EXTT9=
EXTT10=
EXTT11=
EXTT12=
PLAYORDER=
